<svg width="1300" height="210" viewBox="0 0 1300 210" fill="none" xmlns="http://www.w3.org/2000/svg">
<g filter="url(#filter0_d_154_41)">
<rect width="88" height="200" fill="white"/>
<rect width="88" height="200" fill="#FF6767"/>
<rect x="278" width="88" height="200" fill="white"/>
<rect x="278" width="88" height="200" fill="#FF6767"/>
<rect x="556" width="87" height="200" fill="#FF6767"/>
<rect x="93" width="88" height="200" fill="#FF6767"/>
<rect x="371" width="88" height="200" fill="#FF6767"/>
<rect x="648" width="88" height="200" fill="#FF6767"/>
<rect x="186" width="88" height="200" fill="#FF6767"/>
<rect x="463" width="88" height="200" fill="#FF6767"/>
<rect x="740" width="88" height="200" fill="white"/>
<rect x="832" width="88" height="200" fill="white"/>
<rect x="924" width="89" height="200" fill="white"/>
<rect x="1016" width="89" height="200" fill="white"/>
<rect x="1110" width="88" height="200" fill="white"/>
<rect x="1203" width="87" height="200" fill="white"/>
</g>
<g filter="url(#filter1_d_154_41)">
<rect x="68" width="50" height="125" fill="black"/>
<rect x="161" width="50" height="125" fill="black"/>
<rect x="346" width="50" height="125" fill="black"/>
<rect x="531" width="50" height="125" fill="black"/>
<rect x="716" width="50" height="125" fill="black"/>
<rect x="807" width="51" height="125" fill="black"/>
<rect x="993" width="50" height="125" fill="black"/>
<rect x="1177" width="51" height="125" fill="black"/>
<rect x="1085" width="50" height="125" fill="black"/>
<rect x="437" width="51" height="125" fill="black"/>
</g>
<defs>
<filter id="filter0_d_154_41" x="0" y="0" width="1300" height="210" filterUnits="userSpaceOnUse" color-interpolation-filters="sRGB">
<feFlood flood-opacity="0" result="BackgroundImageFix"/>
<feColorMatrix in="SourceAlpha" type="matrix" values="0 0 0 0 0 0 0 0 0 0 0 0 0 0 0 0 0 0 127 0" result="hardAlpha"/>
<feOffset dx="6" dy="6"/>
<feGaussianBlur stdDeviation="2"/>
<feComposite in2="hardAlpha" operator="out"/>
<feColorMatrix type="matrix" values="0 0 0 0 0 0 0 0 0 0 0 0 0 0 0 0 0 0 0.25 0"/>
<feBlend mode="normal" in2="BackgroundImageFix" result="effect1_dropShadow_154_41"/>
<feBlend mode="normal" in="SourceGraphic" in2="effect1_dropShadow_154_41" result="shape"/>
</filter>
<filter id="filter1_d_154_41" x="64" y="0" width="1168" height="133" filterUnits="userSpaceOnUse" color-interpolation-filters="sRGB">
<feFlood flood-opacity="0" result="BackgroundImageFix"/>
<feColorMatrix in="SourceAlpha" type="matrix" values="0 0 0 0 0 0 0 0 0 0 0 0 0 0 0 0 0 0 127 0" result="hardAlpha"/>
<feOffset dy="4"/>
<feGaussianBlur stdDeviation="2"/>
<feComposite in2="hardAlpha" operator="out"/>
<feColorMatrix type="matrix" values="0 0 0 0 0 0 0 0 0 0 0 0 0 0 0 0 0 0 0.25 0"/>
<feBlend mode="normal" in2="BackgroundImageFix" result="effect1_dropShadow_154_41"/>
<feBlend mode="normal" in="SourceGraphic" in2="effect1_dropShadow_154_41" result="shape"/>
</filter>
</defs>
</svg>
