<svg xmlns="http://www.w3.org/2000/svg" viewBox="0 0 85.64 109.7"><defs><style>.cls-1{fill:#a2224c;}</style></defs><g id="Слой_2" data-name="Слой 2"><g id="Objects"><path class="cls-1" d="M84.8,87.53l-12,.38a16.77,16.77,0,0,0-3.55-7.1C62.11,73,52.2,69.93,41.77,69.93c-9.46,0-20.19,6.07-24.56,14.59a21.22,21.22,0,0,0-1.61,4.19c-2.34-.2-4.68-.46-7-.81-1.74-.26-3.84,1.09-5.21,2-.29.2-3.31,2.66-2,2.86A118.57,118.57,0,0,0,15,94a16.37,16.37,0,0,0,.68,4.51c1.57,5.32,7.51,7.46,12.33,9,10,3.2,21.64,3,31.32-1.32C64,104,69.17,100.83,71.72,96.11a11.56,11.56,0,0,0,1.22-3.46l5.75-.18c1.91-.06,4.13-1.51,5.55-2.7C84.84,89.26,86.71,87.47,84.8,87.53ZM24.27,82.38c2.08-4.94,5.49-7.46,10.85-7.51,10-.08,19.54,3,26.39,10.43a19.33,19.33,0,0,1,2,2.9l-17,.53c-7.89.25-15.8.6-23.69.37A19.73,19.73,0,0,1,24.27,82.38ZM64.52,98.59c-1.9,4.41-6.36,5.25-10.7,5.79a43.57,43.57,0,0,1-15.84-1c-4.62-1.14-11.52-3-13.86-7.58a11.74,11.74,0,0,1-.71-1.72c5.19,0,10.39-.23,15.58-.39l26.2-.82A10.06,10.06,0,0,1,64.52,98.59Z"/><path class="cls-1" d="M83.74,17.6,71.79,18a16.72,16.72,0,0,0-3.55-7.1C61.05,3,51.14,0,40.71,0,31.25,0,20.52,6.07,16.15,14.6a21.13,21.13,0,0,0-1.61,4.18c-2.34-.19-4.68-.45-7-.81-1.74-.26-3.84,1.09-5.21,2-.29.2-3.3,2.67-2,2.87a123.28,123.28,0,0,0,13.55,1.2,16.87,16.87,0,0,0,.68,4.51c1.57,5.32,7.52,7.46,12.33,9,10,3.2,21.64,3,31.32-1.32C63,34.11,68.11,30.9,70.67,26.18a11.57,11.57,0,0,0,1.21-3.45l5.75-.18c1.92-.06,4.13-1.51,5.55-2.7C83.78,19.34,85.65,17.54,83.74,17.6ZM23.21,12.46C25.3,7.51,28.7,5,34.06,5c10-.09,19.54,3,26.39,10.43a19.24,19.24,0,0,1,2,2.89l-17,.54c-7.9.25-15.81.6-23.7.36A19.72,19.72,0,0,1,23.21,12.46Zm40.25,16.2c-1.9,4.41-6.36,5.25-10.7,5.79a43.35,43.35,0,0,1-15.84-1c-4.61-1.14-11.52-3-13.86-7.57a12.33,12.33,0,0,1-.71-1.73c5.19,0,10.39-.22,15.58-.39L64.13,23A10,10,0,0,1,63.46,28.66Z"/></g></g></svg>