<svg xmlns="http://www.w3.org/2000/svg" viewBox="0 0 98.26 110.25"><defs><style>.cls-1{fill:#a2224c;}</style></defs><g id="Слой_2" data-name="Слой 2"><g id="Objects"><path class="cls-1" d="M96.05,19.69c-3.45-2.5-9.19-3.34-13.21-4.69L68.07,10,38.52.09C36.2-.69,27.67,3.68,27.67,6.36l0,34.87c0,7.47.22,15,.21,22.52A17,17,0,0,0,19.53,62C12.94,62.37,5,66.7,1.72,72.54-1.44,78.16,0,85.67,4.28,90.28s9.91,5.18,15.56,3.32c6.07-2,12.32-6,15.83-11.48,4.41-6.84,3.25-15.68,3.26-23.44l0-21.06c5.55,2.22,11.33,4,16.86,6,2.45.89,28.87,9.93,28.66,10.65s.46.94,1.42.78l-.81,20.22c-8.44.68-16.84,3.55-23.19,9-7.77,6.65-6.66,18.26,1.93,23.74,8.25,5.26,18.46.53,24.91-5.54C96.6,95,97.4,84.64,96.21,74.55l1.17-29.3q.32-7.78.62-15.56C98.14,26.39,99.14,21.91,96.05,19.69Zm-85,49.52h0l-.08,0C9.56,69.19,9.58,69.18,11.05,69.21ZM22,87.4C17.6,86.78,14.1,83,12.5,79.05a13.83,13.83,0,0,1-1-7.38,7.31,7.31,0,0,1,.33-1.61c.26-.43.31-.71.18-.85a5.25,5.25,0,0,1,.87.14c5.2.8,9.32,4.18,12.28,8.38.36.51,1.19.56,2.24.31C27.13,81.87,26.26,88,22,87.4Zm62.08,10c-.54,1.63-1.49,3-2.09,4.58-1.14,1-1.18,1.38-.12,1.12,1.09-.09.93-.06-.5.09a14.38,14.38,0,0,1-6.67-2,14.58,14.58,0,0,1-6.78-12.71,8.47,8.47,0,0,1,.69-3.58c.85-1.46,2.07-1.6,4.08-2a36.64,36.64,0,0,1,12.49-.23A35.91,35.91,0,0,1,84.05,97.41Z"/></g></g></svg>