<svg xmlns="http://www.w3.org/2000/svg" viewBox="0 0 80.1 109.6"><defs><style>.cls-1{fill:#a2224c;}</style></defs><g id="Слой_2" data-name="Слой 2"><g id="Objects"><path class="cls-1" d="M35.57,75.83c3.54-3.19,6.12-7.42,5.74-12.36-.52-6.82-6.65-12.66-13.42-13.1a12.68,12.68,0,0,0-1.51,0C25.13,47,24,43.61,22.92,40.15c-.16-.55-.32-1.1-.49-1.65a41.06,41.06,0,0,0,8.14-11.2c2.34-5.12,2.5-10.95,2.18-16.5-.18-3.2-.66-7.3-3.28-9.52-3-2.51-7.08-.86-10,.92A14.9,14.9,0,0,0,13,11.25c-2.87,10-.42,20.58,2.35,30.36-2.46,2.5-5,4.91-7.34,7.52C4.07,53.54-.57,59.35.06,65.64S6.64,78.53,12.23,81c5.36,2.37,11.41,1.64,16.6-.76A45,45,0,0,1,30,93.38a27.25,27.25,0,0,1-1.25,6.75,15.66,15.66,0,0,1-1.64,3.49c-.23.36-.61.75-.82,1.14L26,105l-1,.21a14.82,14.82,0,0,1-8.59-2.07c3.72-2,7.12-5.25,6.7-9.45a6.45,6.45,0,0,0-4.62-5.52c-2.84-.73-6,.85-8.29,2.35C5.35,93.69,3,99.67,6.78,104.72s11.63,5.93,17.11,3.88C35.28,104.33,37.83,93,36.65,82A51.18,51.18,0,0,0,35.57,75.83ZM30,58.38A13.07,13.07,0,0,1,34.09,70.6c-.83-2.59-1.79-5.15-2.8-7.68l-2.07-5.19C29.47,57.94,29.72,58.15,30,58.38ZM18.69,14.88a36,36,0,0,1,.93-5.94,22.5,22.5,0,0,1,1.06-3.32,8.92,8.92,0,0,1,.48-.91,7.17,7.17,0,0,1,2.26,1.37,9,9,0,0,1,1.45,2.76,23.66,23.66,0,0,1,1.05,7.48c.11,6.77-.87,12.74-4.59,18.28C19.57,28.16,18.2,21.48,18.69,14.88Zm.31,62C14,74.82,9.2,69.36,7.46,64.2,5.56,58.53,9.16,53,12.64,48.76c1.15-1.38,2.37-2.71,3.63-4,.81,2.61,1.73,5.17,2.7,7.72a18.26,18.26,0,0,0-7.77,7.17c-2.92,5.45.28,12.57,6.53,13.48,1.54.23,3.38-1,4.59-1.79.26-.17,2.91-2.35,1.74-2.52a8.48,8.48,0,0,1-6.79-10.55c.56-1.83,1.35-2.9,2.64-3.34,3,7.57,6.19,15,8.3,22.86a7.41,7.41,0,0,1-.87.19A16,16,0,0,1,19,76.87Z"/><path class="cls-1" d="M79.62,36.74c-3.32.94-6.63,1.85-10,2.74q-.55-4.62-1.26-9.21L74,28.87a5.4,5.4,0,0,0,2.51-2.05c.26-.36,1-1.46,0-1.22-2.84.7-5.67,1.4-8.51,2.12q-.65-4-1.39-7.93c-.14-.73-3.77,1.75-3.55,2.88.38,2,.74,4,1.08,6q-5.78,1.49-11.53,3c-.07-2.91-.17-5.83-.32-8.74,0-.76-1.56.43-1.74.56-.55.44-1.85,1.49-1.81,2.33.12,2.27.2,4.55.27,6.83-2,.53-3.93,1.06-5.89,1.61a5.58,5.58,0,0,0-2.51,2.05c-.25.34-1,1.49,0,1.22l8.49-2.32c.07,3.11.09,6.22.08,9.33l-4.44,1a5.34,5.34,0,0,0-2.5,2.06c-.28.36-1,1.43,0,1.22,2.31-.53,4.62-1.06,6.93-1.61,0,2.84-.11,5.69-.22,8.53a1.26,1.26,0,0,0-.35.91L48.82,58c.19.88,3.51-1.92,3.55-2.89.13-2.87.22-5.75.28-8.62Q59.43,44.81,66.19,43q.65,5.49,1.08,11c0,.61,3.65-1.66,3.55-2.89C70.58,48.08,70.28,45,70,42q3.57-1,7.14-2a5.58,5.58,0,0,0,2.51-2C79.84,37.63,80.59,36.46,79.62,36.74Zm-26.93,7c0-3.15,0-6.3,0-9.45q5.94-1.57,11.89-3.09.74,4.61,1.32,9.24Q59.3,42.21,52.69,43.78Z"/></g></g></svg>