<svg width="746" height="210" viewBox="0 0 746 210" fill="none" xmlns="http://www.w3.org/2000/svg">
<g filter="url(#filter0_d_128_2)">
<rect width="88" height="200" fill="white"/>
<rect width="88" height="200" fill="white"/>
<rect x="278" width="88" height="200" fill="white"/>
<rect x="278" width="88" height="200" fill="white"/>
<rect x="556" width="87" height="200" fill="white"/>
<rect x="93" width="88" height="200" fill="white"/>
<rect x="371" width="88" height="200" fill="white"/>
<rect x="648" width="88" height="200" fill="white"/>
<rect x="186" width="88" height="200" fill="white"/>
<rect x="463" width="88" height="200" fill="white"/>
</g>
<g filter="url(#filter1_d_128_2)">
<rect x="68" width="50" height="125" fill="black"/>
<rect x="161" width="50" height="125" fill="black"/>
<rect x="346" width="50" height="125" fill="black"/>
<rect x="531" width="50" height="125" fill="black"/>
<rect x="437" width="51" height="125" fill="black"/>
</g>
<path d="M52.5455 151H49.7273C49.5606 150.189 49.2689 149.477 48.8523 148.864C48.4432 148.25 47.9432 147.735 47.3523 147.318C46.7689 146.894 46.1212 146.576 45.4091 146.364C44.697 146.152 43.9545 146.045 43.1818 146.045C41.7727 146.045 40.4962 146.402 39.3523 147.114C38.2159 147.826 37.3106 148.875 36.6364 150.261C35.9697 151.648 35.6364 153.348 35.6364 155.364C35.6364 157.379 35.9697 159.08 36.6364 160.466C37.3106 161.852 38.2159 162.902 39.3523 163.614C40.4962 164.326 41.7727 164.682 43.1818 164.682C43.9545 164.682 44.697 164.576 45.4091 164.364C46.1212 164.152 46.7689 163.837 47.3523 163.42C47.9432 162.996 48.4432 162.477 48.8523 161.864C49.2689 161.242 49.5606 160.53 49.7273 159.727H52.5455C52.3333 160.917 51.947 161.981 51.3864 162.92C50.8258 163.86 50.1288 164.659 49.2955 165.318C48.4621 165.97 47.5265 166.466 46.4886 166.807C45.4583 167.148 44.3561 167.318 43.1818 167.318C41.197 167.318 39.4318 166.833 37.8864 165.864C36.3409 164.894 35.125 163.515 34.2386 161.727C33.3523 159.939 32.9091 157.818 32.9091 155.364C32.9091 152.909 33.3523 150.788 34.2386 149C35.125 147.212 36.3409 145.833 37.8864 144.864C39.4318 143.894 41.197 143.409 43.1818 143.409C44.3561 143.409 45.4583 143.58 46.4886 143.92C47.5265 144.261 48.4621 144.761 49.2955 145.42C50.1288 146.072 50.8258 146.867 51.3864 147.807C51.947 148.739 52.3333 149.803 52.5455 151Z" fill="black"/>
<path d="M92.1591 57H90.0455C89.9205 56.392 89.7017 55.858 89.3892 55.3977C89.0824 54.9375 88.7074 54.5511 88.2642 54.2386C87.8267 53.9205 87.3409 53.6818 86.8068 53.5227C86.2727 53.3636 85.7159 53.2841 85.1364 53.2841C84.0795 53.2841 83.1222 53.5511 82.2642 54.0852C81.4119 54.6193 80.733 55.4062 80.2273 56.446C79.7273 57.4858 79.4773 58.7614 79.4773 60.2727C79.4773 61.7841 79.7273 63.0597 80.2273 64.0994C80.733 65.1392 81.4119 65.9261 82.2642 66.4602C83.1222 66.9943 84.0795 67.2614 85.1364 67.2614C85.7159 67.2614 86.2727 67.1818 86.8068 67.0227C87.3409 66.8636 87.8267 66.6278 88.2642 66.3153C88.7074 65.9972 89.0824 65.608 89.3892 65.1477C89.7017 64.6818 89.9205 64.1477 90.0455 63.5455H92.1591C92 64.4375 91.7102 65.2358 91.2898 65.9403C90.8693 66.6449 90.3466 67.2443 89.7216 67.7386C89.0966 68.2273 88.3949 68.5994 87.6165 68.8551C86.8438 69.1108 86.017 69.2386 85.1364 69.2386C83.6477 69.2386 82.3239 68.875 81.1648 68.1477C80.0057 67.4205 79.0938 66.3864 78.429 65.0455C77.7642 63.7045 77.4318 62.1136 77.4318 60.2727C77.4318 58.4318 77.7642 56.8409 78.429 55.5C79.0938 54.1591 80.0057 53.125 81.1648 52.3977C82.3239 51.6705 83.6477 51.3068 85.1364 51.3068C86.017 51.3068 86.8438 51.4347 87.6165 51.6903C88.3949 51.946 89.0966 52.321 89.7216 52.8153C90.3466 53.304 90.8693 53.9006 91.2898 54.6051C91.7102 55.304 92 56.1023 92.1591 57ZM101.813 69L104.677 51.5455H106.381L103.518 69H101.813ZM93.87 64.1591L94.1428 62.4545H107.165L106.893 64.1591H93.87ZM95.6768 69L98.5405 51.5455H100.245L97.3814 69H95.6768ZM94.8928 58.0909L95.1655 56.3864H108.188L107.915 58.0909H94.8928Z" fill="white"/>
<path d="M176.5 69H171.114V51.5455H176.739C178.432 51.5455 179.881 51.8949 181.085 52.5938C182.29 53.2869 183.213 54.2841 183.855 55.5852C184.497 56.8807 184.818 58.4318 184.818 60.2386C184.818 62.0568 184.494 63.6222 183.847 64.9347C183.199 66.2415 182.256 67.2472 181.017 67.9517C179.778 68.6506 178.273 69 176.5 69ZM173.227 67.125H176.364C177.807 67.125 179.003 66.8466 179.952 66.2898C180.901 65.733 181.608 64.9403 182.074 63.9119C182.54 62.8835 182.773 61.6591 182.773 60.2386C182.773 58.8295 182.543 57.6165 182.082 56.5994C181.622 55.5767 180.935 54.7926 180.02 54.2472C179.105 53.696 177.966 53.4205 176.602 53.4205H173.227V67.125ZM194.602 69L197.466 51.5455H199.17L196.307 69H194.602ZM186.659 64.1591L186.932 62.4545H199.955L199.682 64.1591H186.659ZM188.466 69L191.33 51.5455H193.034L190.17 69H188.466ZM187.682 58.0909L187.955 56.3864H200.977L200.705 58.0909H187.682Z" fill="white"/>
<path d="M356.114 69V51.5455H366.58V53.4205H358.227V59.3182H365.795V61.1932H358.227V69H356.114ZM376.438 69L379.302 51.5455H381.006L378.143 69H376.438ZM368.495 64.1591L368.768 62.4545H381.79L381.518 64.1591H368.495ZM370.302 69L373.165 51.5455H374.87L372.006 69H370.302ZM369.518 58.0909L369.79 56.3864H382.813L382.54 58.0909H369.518Z" fill="white"/>
<path d="M460.045 57C459.858 56.4261 459.611 55.9119 459.304 55.4574C459.003 54.9972 458.642 54.6051 458.222 54.2812C457.807 53.9574 457.335 53.7102 456.807 53.5398C456.278 53.3693 455.699 53.2841 455.068 53.2841C454.034 53.2841 453.094 53.5511 452.247 54.0852C451.401 54.6193 450.727 55.4062 450.227 56.446C449.727 57.4858 449.477 58.7614 449.477 60.2727C449.477 61.7841 449.73 63.0597 450.236 64.0994C450.741 65.1392 451.426 65.9261 452.29 66.4602C453.153 66.9943 454.125 67.2614 455.205 67.2614C456.205 67.2614 457.085 67.0483 457.847 66.6222C458.614 66.1903 459.21 65.5824 459.636 64.7983C460.068 64.0085 460.284 63.0795 460.284 62.0114L460.932 62.1477H455.682V60.2727H462.33V62.1477C462.33 63.5852 462.023 64.8352 461.409 65.8977C460.801 66.9602 459.96 67.7841 458.886 68.3693C457.818 68.9489 456.591 69.2386 455.205 69.2386C453.659 69.2386 452.301 68.875 451.131 68.1477C449.966 67.4205 449.057 66.3864 448.403 65.0455C447.756 63.7045 447.432 62.1136 447.432 60.2727C447.432 58.892 447.616 57.6506 447.986 56.5483C448.361 55.4403 448.889 54.4972 449.571 53.7188C450.253 52.9403 451.06 52.3438 451.991 51.929C452.923 51.5142 453.949 51.3068 455.068 51.3068C455.989 51.3068 456.847 51.446 457.642 51.7244C458.443 51.9972 459.156 52.3864 459.781 52.892C460.412 53.392 460.938 53.9915 461.358 54.6903C461.778 55.3835 462.068 56.1534 462.227 57H460.045ZM472.188 69L475.052 51.5455H476.756L473.893 69H472.188ZM464.245 64.1591L464.518 62.4545H477.54L477.268 64.1591H464.245ZM466.052 69L468.915 51.5455H470.62L467.756 69H466.052ZM465.268 58.0909L465.54 56.3864H478.563L478.29 58.0909H465.268Z" fill="white"/>
<path d="M540.83 69H538.614L545.023 51.5455H547.205L553.614 69H551.398L546.182 54.3068H546.045L540.83 69ZM541.648 62.1818H550.58V64.0568H541.648V62.1818ZM562.571 69L565.435 51.5455H567.139L564.276 69H562.571ZM554.628 64.1591L554.901 62.4545H567.923L567.651 64.1591H554.628ZM556.435 69L559.298 51.5455H561.003L558.139 69H556.435ZM555.651 58.0909L555.923 56.3864H568.946L568.673 58.0909H555.651Z" fill="white"/>
<path d="M134 167H126.818V143.727H134.318C136.576 143.727 138.508 144.193 140.114 145.125C141.72 146.049 142.951 147.379 143.807 149.114C144.663 150.841 145.091 152.909 145.091 155.318C145.091 157.742 144.659 159.83 143.795 161.58C142.932 163.322 141.674 164.663 140.023 165.602C138.371 166.534 136.364 167 134 167ZM129.636 164.5H133.818C135.742 164.5 137.337 164.129 138.602 163.386C139.867 162.644 140.811 161.587 141.432 160.216C142.053 158.845 142.364 157.212 142.364 155.318C142.364 153.439 142.057 151.822 141.443 150.466C140.83 149.102 139.913 148.057 138.693 147.33C137.473 146.595 135.955 146.227 134.136 146.227H129.636V164.5Z" fill="black"/>
<path d="M219.818 167V143.727H233.864V146.227H222.636V154.091H233.136V156.591H222.636V164.5H234.045V167H219.818Z" fill="black"/>
<path d="M311.818 167V143.727H325.773V146.227H314.636V154.091H324.727V156.591H314.636V167H311.818Z" fill="black"/>
<path d="M420.727 151C420.477 150.235 420.148 149.549 419.739 148.943C419.337 148.33 418.856 147.807 418.295 147.375C417.742 146.943 417.114 146.614 416.409 146.386C415.705 146.159 414.932 146.045 414.091 146.045C412.712 146.045 411.458 146.402 410.33 147.114C409.201 147.826 408.303 148.875 407.636 150.261C406.97 151.648 406.636 153.348 406.636 155.364C406.636 157.379 406.973 159.08 407.648 160.466C408.322 161.852 409.235 162.902 410.386 163.614C411.538 164.326 412.833 164.682 414.273 164.682C415.606 164.682 416.78 164.398 417.795 163.83C418.818 163.254 419.614 162.443 420.182 161.398C420.758 160.345 421.045 159.106 421.045 157.682L421.909 157.864H414.909V155.364H423.773V157.864C423.773 159.78 423.364 161.447 422.545 162.864C421.735 164.28 420.614 165.379 419.182 166.159C417.758 166.932 416.121 167.318 414.273 167.318C412.212 167.318 410.402 166.833 408.841 165.864C407.288 164.894 406.076 163.515 405.205 161.727C404.341 159.939 403.909 157.818 403.909 155.364C403.909 153.523 404.155 151.867 404.648 150.398C405.148 148.92 405.852 147.663 406.761 146.625C407.67 145.587 408.746 144.792 409.989 144.239C411.231 143.686 412.598 143.409 414.091 143.409C415.318 143.409 416.462 143.595 417.523 143.966C418.591 144.33 419.542 144.848 420.375 145.523C421.216 146.189 421.917 146.989 422.477 147.92C423.038 148.845 423.424 149.871 423.636 151H420.727Z" fill="black"/>
<path d="M497.773 167H494.818L503.364 143.727H506.273L514.818 167H511.864L504.909 147.409H504.727L497.773 167ZM498.864 157.909H510.773V160.409H498.864V157.909Z" fill="black"/>
<path d="M589.818 167V143.727H597.955C599.576 143.727 600.913 144.008 601.966 144.568C603.019 145.121 603.803 145.867 604.318 146.807C604.833 147.739 605.091 148.773 605.091 149.909C605.091 150.909 604.913 151.735 604.557 152.386C604.208 153.038 603.746 153.553 603.17 153.932C602.602 154.311 601.985 154.591 601.318 154.773V155C602.03 155.045 602.746 155.295 603.466 155.75C604.186 156.205 604.788 156.856 605.273 157.705C605.758 158.553 606 159.591 606 160.818C606 161.985 605.735 163.034 605.205 163.966C604.674 164.898 603.837 165.636 602.693 166.182C601.549 166.727 600.061 167 598.227 167H589.818ZM592.636 164.5H598.227C600.068 164.5 601.375 164.144 602.148 163.432C602.928 162.712 603.318 161.841 603.318 160.818C603.318 160.03 603.117 159.303 602.716 158.636C602.314 157.962 601.742 157.424 601 157.023C600.258 156.614 599.379 156.409 598.364 156.409H592.636V164.5ZM592.636 153.955H597.864C598.712 153.955 599.477 153.788 600.159 153.455C600.848 153.121 601.394 152.652 601.795 152.045C602.205 151.439 602.409 150.727 602.409 149.909C602.409 148.886 602.053 148.019 601.341 147.307C600.629 146.587 599.5 146.227 597.955 146.227H592.636V153.955Z" fill="black"/>
<path d="M700.545 151H697.727C697.561 150.189 697.269 149.477 696.852 148.864C696.443 148.25 695.943 147.735 695.352 147.318C694.769 146.894 694.121 146.576 693.409 146.364C692.697 146.152 691.955 146.045 691.182 146.045C689.773 146.045 688.496 146.402 687.352 147.114C686.216 147.826 685.311 148.875 684.636 150.261C683.97 151.648 683.636 153.348 683.636 155.364C683.636 157.379 683.97 159.08 684.636 160.466C685.311 161.852 686.216 162.902 687.352 163.614C688.496 164.326 689.773 164.682 691.182 164.682C691.955 164.682 692.697 164.576 693.409 164.364C694.121 164.152 694.769 163.837 695.352 163.42C695.943 162.996 696.443 162.477 696.852 161.864C697.269 161.242 697.561 160.53 697.727 159.727H700.545C700.333 160.917 699.947 161.981 699.386 162.92C698.826 163.86 698.129 164.659 697.295 165.318C696.462 165.97 695.527 166.466 694.489 166.807C693.458 167.148 692.356 167.318 691.182 167.318C689.197 167.318 687.432 166.833 685.886 165.864C684.341 164.894 683.125 163.515 682.239 161.727C681.352 159.939 680.909 157.818 680.909 155.364C680.909 152.909 681.352 150.788 682.239 149C683.125 147.212 684.341 145.833 685.886 144.864C687.432 143.894 689.197 143.409 691.182 143.409C692.356 143.409 693.458 143.58 694.489 143.92C695.527 144.261 696.462 144.761 697.295 145.42C698.129 146.072 698.826 146.867 699.386 147.807C699.947 148.739 700.333 149.803 700.545 151Z" fill="black"/>
<defs>
<filter id="filter0_d_128_2" x="0" y="0" width="746" height="210" filterUnits="userSpaceOnUse" color-interpolation-filters="sRGB">
<feFlood flood-opacity="0" result="BackgroundImageFix"/>
<feColorMatrix in="SourceAlpha" type="matrix" values="0 0 0 0 0 0 0 0 0 0 0 0 0 0 0 0 0 0 127 0" result="hardAlpha"/>
<feOffset dx="6" dy="6"/>
<feGaussianBlur stdDeviation="2"/>
<feComposite in2="hardAlpha" operator="out"/>
<feColorMatrix type="matrix" values="0 0 0 0 0 0 0 0 0 0 0 0 0 0 0 0 0 0 0.25 0"/>
<feBlend mode="normal" in2="BackgroundImageFix" result="effect1_dropShadow_128_2"/>
<feBlend mode="normal" in="SourceGraphic" in2="effect1_dropShadow_128_2" result="shape"/>
</filter>
<filter id="filter1_d_128_2" x="64" y="0" width="521" height="133" filterUnits="userSpaceOnUse" color-interpolation-filters="sRGB">
<feFlood flood-opacity="0" result="BackgroundImageFix"/>
<feColorMatrix in="SourceAlpha" type="matrix" values="0 0 0 0 0 0 0 0 0 0 0 0 0 0 0 0 0 0 127 0" result="hardAlpha"/>
<feOffset dy="4"/>
<feGaussianBlur stdDeviation="2"/>
<feComposite in2="hardAlpha" operator="out"/>
<feColorMatrix type="matrix" values="0 0 0 0 0 0 0 0 0 0 0 0 0 0 0 0 0 0 0.25 0"/>
<feBlend mode="normal" in2="BackgroundImageFix" result="effect1_dropShadow_128_2"/>
<feBlend mode="normal" in="SourceGraphic" in2="effect1_dropShadow_128_2" result="shape"/>
</filter>
</defs>
</svg>
