<svg xmlns="http://www.w3.org/2000/svg" viewBox="0 0 80.55 109.7"><defs><style>.cls-1{fill:#a2224c;}</style></defs><g id="Слой_2" data-name="Слой 2"><g id="Objects"><path class="cls-1" d="M80.17,35.21c-1.26-1.16-6.7,2.33-7.54,2.94,1.66-1.22-1.52-.67-2.52-.85a15.68,15.68,0,0,1-3.29-1,18.74,18.74,0,0,1-7-5.56c-3.41-4.14-5.51-9.15-8.42-13.61A25.56,25.56,0,0,0,40.66,7.39c-4.72-2.16-10-3-13.67-7-1.87-2-12,3.88-11.26,6.5a281.51,281.51,0,0,1,9.78,68.43C13,74.65-4.56,85,1.09,99.42c5.12,13,24.47,13.21,32.61,3.13,4.11-5.08,2.91-14.22,3.08-20.39q.38-12.72-.44-25.43a280.42,280.42,0,0,0-5.92-42.22c.36.17.72.35,1.07.54,6.85,3.63,9.88,10.81,13.67,17.13C48.51,37.75,53,43.1,59.72,44.38c6.32,1.2,12.56-1.32,17.6-5C78.34,38.6,81.66,36.58,80.17,35.21Z"/></g></g></svg>