<svg xmlns="http://www.w3.org/2000/svg" viewBox="0 0 53.14 112.34"><defs><style>.cls-1{fill:#a2224c;}</style></defs><g id="Слой_2" data-name="Слой 2"><g id="Objects"><path class="cls-1" d="M48.61,78.54A30.81,30.81,0,0,0,22.28,74.2,44,44,0,0,0,8.71,80.73C5.3,83.15,1.17,86.12.4,90.48c-.68,3.82-.28,8.21.19,12,.65,5.42,6,8,10.87,9,10.5,2,22.84.34,31.72-5.77,4.44-3,8.33-7.4,9.54-12.79C53.85,87.93,52.77,81.9,48.61,78.54ZM38.42,105.82c-5.17,2-12.08,2-17.56,1.43-4.54-.45-10.8-2.07-12.46-6.9C7.2,96.87,7.31,91.69,7.68,88c.42-4.18,3.54-6.67,7.24-8.35,8.45-3.83,18.87-2.12,26.3,3.12C48,88.24,47.09,102.51,38.42,105.82Z"/><path class="cls-1" d="M48.61,40.29A30.81,30.81,0,0,0,22.28,36,44,44,0,0,0,8.71,42.48C5.3,44.89,1.17,47.87.4,52.23c-.68,3.82-.28,8.2.19,12,.65,5.43,6,8,10.87,9,10.5,2,22.84.34,31.72-5.77,4.44-3.06,8.33-7.4,9.54-12.79C53.85,49.67,52.77,43.65,48.61,40.29ZM38.42,67.56c-5.17,2-12.08,2-17.56,1.44-4.54-.45-10.8-2.07-12.46-6.9-1.2-3.48-1.09-8.66-.72-12.32.42-4.18,3.54-6.67,7.24-8.35,8.45-3.83,18.87-2.12,26.3,3.12C48,50,47.09,64.26,38.42,67.56Z"/><path class="cls-1" d="M48.57,5.55A30.8,30.8,0,0,0,22.24,1.22,43.75,43.75,0,0,0,8.67,7.74c-3.4,2.42-7.54,5.4-8.31,9.76-.68,3.81-.27,8.2.19,12,.65,5.43,6,8,10.88,9,10.5,2,22.83.34,31.71-5.76,4.45-3.06,8.33-7.41,9.54-12.8C53.82,14.94,52.73,8.91,48.57,5.55ZM38.39,32.83c-5.18,2-12.09,2-17.57,1.43-4.53-.45-10.8-2.07-12.46-6.9C7.16,23.89,7.27,18.7,7.64,15c.42-4.18,3.54-6.66,7.25-8.34,8.44-3.84,18.87-2.13,26.3,3.11C47.92,15.26,47.05,29.52,38.39,32.83Z"/></g></g></svg>